<svg xmlns="http://www.w3.org/2000/svg" viewBox="0 0 24 24" fill="none" stroke="#AEB7C1" stroke-width="1.8" stroke-linecap="round" stroke-linejoin="round">
  <circle cx="12" cy="12" r="3"/>
  <path d="M19 13.5v-3l-2.1-.5a7.2 7.2 0 0 0-.8-1.9l1.1-1.8-2.1-2.1-1.8 1.1a7.2 7.2 0 0 0-1.9-.8L11 2.5H8l-.5 2.1a7.2 7.2 0 0 0-1.9.8L3.8 4.3 1.7 6.4l1.1 1.8a7.2 7.2 0 0 0-.8 1.9L0 10.5v3l2.1.5a7.2 7.2 0 0 0 .8 1.9l-1.1 1.8 2.1 2.1 1.8-1.1a7.2 7.2 0 0 0 1.9.8l.5 2.1h3l.5-2.1a7.2 7.2 0 0 0 1.9-.8l1.8 1.1 2.1-2.1-1.1-1.8a7.2 7.2 0 0 0 .8-1.9L19 13.5Z" transform="translate(2.5 0) scale(.82)"/>
</svg>
